<svg width="24" height="25" viewBox="0 0 24 25" fill="none" xmlns="http://www.w3.org/2000/svg">
<path d="M12.1393 7.62598C11.2721 7.62598 9.92984 6.64004 8.51626 6.67568C6.6513 6.69944 4.94076 7.75664 3.97858 9.43155C2.04234 12.7932 3.47967 17.7586 5.3684 20.4907C6.29494 21.8211 7.38778 23.3178 8.83699 23.2703C10.2268 23.2109 10.7495 22.3675 12.4363 22.3675C14.1112 22.3675 14.5863 23.2703 16.0593 23.2347C17.556 23.2109 18.5063 21.8805 19.421 20.5382C20.4782 18.9939 20.9177 17.4972 20.9414 17.4141C20.9058 17.4022 18.0311 16.2975 17.9955 12.9714C17.9718 10.1918 20.2644 8.86137 20.3713 8.80197C19.0646 6.88949 17.0571 6.67568 16.3562 6.62816C14.5269 6.48562 12.9946 7.62598 12.1393 7.62598ZM15.2278 4.82259C15.9999 3.89605 16.5107 2.60126 16.3681 1.31836C15.2634 1.36587 13.933 2.05484 13.1371 2.98138C12.4244 3.80102 11.8067 5.11956 11.973 6.37871C13.1965 6.47374 14.4556 5.74913 15.2278 4.82259Z" fill="#3A383F"/>
</svg>
