<svg width="24" height="25" viewBox="0 0 24 25" fill="none" xmlns="http://www.w3.org/2000/svg">
<rect width="24" height="24" transform="translate(0 0.294922)" fill="none"/>
<path fill-rule="evenodd" clip-rule="evenodd" d="M22.2543 12.5362C22.2543 11.7789 22.1863 11.0507 22.0601 10.3516H12.0005V14.483H17.7488C17.5012 15.8181 16.7487 16.9493 15.6175 17.7066V20.3865H19.0694C21.0891 18.5271 22.2543 15.789 22.2543 12.5362Z" fill="#4285F4"/>
<path fill-rule="evenodd" clip-rule="evenodd" d="M12.0034 22.9755C14.8873 22.9755 17.3051 22.0191 19.0723 20.3879L15.6204 17.708C14.664 18.3489 13.4405 18.7276 12.0034 18.7276C9.22152 18.7276 6.86684 16.8487 6.02692 14.3242H2.4585V17.0915C4.21601 20.5821 7.82813 22.9755 12.0034 22.9755Z" fill="#34A853"/>
<path fill-rule="evenodd" clip-rule="evenodd" d="M6.02383 14.3239C5.81021 13.6831 5.68884 12.9986 5.68884 12.2946C5.68884 11.5907 5.81021 10.9061 6.02383 10.2653V7.49805H2.45541C1.73201 8.93993 1.31934 10.5712 1.31934 12.2946C1.31934 14.0181 1.73201 15.6493 2.45541 17.0912L6.02383 14.3239Z" fill="#FBBC05"/>
<path fill-rule="evenodd" clip-rule="evenodd" d="M12.0034 5.86126C13.5716 5.86126 14.9795 6.40015 16.0865 7.4585L19.15 4.3951C17.3002 2.67163 14.8824 1.61328 12.0034 1.61328C7.82813 1.61328 4.21601 4.00671 2.4585 7.49734L6.02692 10.2646C6.86684 7.74008 9.22152 5.86126 12.0034 5.86126Z" fill="#EA4335"/>
</svg>
